<mxfile host="app.diagrams.net" modified="2021-06-25T08:48:29.198Z" agent="5.0 (Macintosh; Intel Mac OS X 10_14_3) AppleWebKit/537.36 (KHTML, like Gecko) Chrome/91.0.4472.77 Safari/537.36" etag="6w-VCV0ZtY2mAJxKUL-d" version="14.8.0" type="github">
  <diagram id="HBfpj88JwwQCAbCEnsMh" name="Page-1">
    <mxGraphModel dx="946" dy="614" grid="1" gridSize="10" guides="1" tooltips="1" connect="1" arrows="1" fold="1" page="1" pageScale="1" pageWidth="827" pageHeight="1169" math="0" shadow="0">
      <root>
        <mxCell id="0" />
        <mxCell id="1" parent="0" />
        <mxCell id="XxTEMyb00BygMt78V1oa-12" value="" style="rounded=0;whiteSpace=wrap;html=1;fillColor=#dae8fc;strokeColor=#6c8ebf;" vertex="1" parent="1">
          <mxGeometry x="480" y="218" width="330" height="244" as="geometry" />
        </mxCell>
        <mxCell id="XxTEMyb00BygMt78V1oa-22" style="edgeStyle=orthogonalEdgeStyle;rounded=0;sketch=0;jumpStyle=sharp;jumpSize=7;orthogonalLoop=1;jettySize=auto;html=1;entryX=0;entryY=0.5;entryDx=0;entryDy=0;shadow=1;fontColor=#FF3333;startArrow=none;startFill=0;endArrow=classic;endFill=1;strokeWidth=3;" edge="1" parent="1" source="XxTEMyb00BygMt78V1oa-2" target="XxTEMyb00BygMt78V1oa-5">
          <mxGeometry relative="1" as="geometry" />
        </mxCell>
        <mxCell id="XxTEMyb00BygMt78V1oa-2" value="内容安全服务" style="rounded=0;whiteSpace=wrap;html=1;fillColor=#ffe6cc;strokeColor=#d79b00;" vertex="1" parent="1">
          <mxGeometry x="500" y="362" width="120" height="60" as="geometry" />
        </mxCell>
        <mxCell id="XxTEMyb00BygMt78V1oa-3" value="审核员工" style="shape=umlActor;verticalLabelPosition=bottom;verticalAlign=top;html=1;outlineConnect=0;" vertex="1" parent="1">
          <mxGeometry x="760" y="362" width="30" height="60" as="geometry" />
        </mxCell>
        <mxCell id="XxTEMyb00BygMt78V1oa-5" value="人审平台" style="shape=image;html=1;verticalAlign=top;verticalLabelPosition=bottom;labelBackgroundColor=#ffffff;imageAspect=0;aspect=fixed;image=https://cdn1.iconfinder.com/data/icons/logotypes/32/chrome-128.png" vertex="1" parent="1">
          <mxGeometry x="675" y="362" width="60" height="60" as="geometry" />
        </mxCell>
        <mxCell id="XxTEMyb00BygMt78V1oa-7" value="内网" style="text;html=1;strokeColor=none;fillColor=none;align=center;verticalAlign=middle;whiteSpace=wrap;rounded=0;" vertex="1" parent="1">
          <mxGeometry x="720" y="242" width="40" height="20" as="geometry" />
        </mxCell>
        <mxCell id="XxTEMyb00BygMt78V1oa-11" style="edgeStyle=orthogonalEdgeStyle;rounded=0;orthogonalLoop=1;jettySize=auto;html=1;endArrow=none;endFill=0;startArrow=classic;startFill=1;jumpSize=12;shadow=1;fontColor=#FF3333;jumpStyle=sharp;sketch=1;strokeColor=#FF3333;strokeWidth=3;" edge="1" parent="1" source="XxTEMyb00BygMt78V1oa-8" target="XxTEMyb00BygMt78V1oa-2">
          <mxGeometry relative="1" as="geometry" />
        </mxCell>
        <mxCell id="XxTEMyb00BygMt78V1oa-8" value="nginx" style="rounded=1;whiteSpace=wrap;html=1;fillColor=#60a917;strokeColor=#2D7600;fontColor=#ffffff;" vertex="1" parent="1">
          <mxGeometry x="520" y="282" width="80" height="35" as="geometry" />
        </mxCell>
        <mxCell id="XxTEMyb00BygMt78V1oa-10" style="edgeStyle=orthogonalEdgeStyle;rounded=0;orthogonalLoop=1;jettySize=auto;html=1;endArrow=none;endFill=0;startArrow=classic;startFill=1;jumpSize=12;shadow=1;fontColor=#FF3333;jumpStyle=sharp;sketch=1;strokeColor=#FF3333;strokeWidth=3;" edge="1" parent="1" source="XxTEMyb00BygMt78V1oa-9" target="XxTEMyb00BygMt78V1oa-8">
          <mxGeometry relative="1" as="geometry" />
        </mxCell>
        <mxCell id="XxTEMyb00BygMt78V1oa-13" value="LAN" style="edgeLabel;html=1;align=center;verticalAlign=middle;resizable=0;points=[];" vertex="1" connectable="0" parent="XxTEMyb00BygMt78V1oa-10">
          <mxGeometry x="-0.5556" relative="1" as="geometry">
            <mxPoint y="12" as="offset" />
          </mxGeometry>
        </mxCell>
        <mxCell id="XxTEMyb00BygMt78V1oa-18" style="edgeStyle=orthogonalEdgeStyle;rounded=0;orthogonalLoop=1;jettySize=auto;html=1;entryX=1;entryY=0.5;entryDx=0;entryDy=0;entryPerimeter=0;jumpSize=12;shadow=1;fontColor=#FF3333;jumpStyle=sharp;sketch=1;strokeColor=#FF3333;strokeWidth=3;" edge="1" parent="1" source="XxTEMyb00BygMt78V1oa-9" target="XxTEMyb00BygMt78V1oa-17">
          <mxGeometry relative="1" as="geometry">
            <Array as="points">
              <mxPoint x="560" y="136" />
            </Array>
          </mxGeometry>
        </mxCell>
        <mxCell id="XxTEMyb00BygMt78V1oa-19" value="WAN" style="edgeLabel;html=1;align=center;verticalAlign=middle;resizable=0;points=[];" vertex="1" connectable="0" parent="XxTEMyb00BygMt78V1oa-18">
          <mxGeometry x="-0.8068" relative="1" as="geometry">
            <mxPoint as="offset" />
          </mxGeometry>
        </mxCell>
        <mxCell id="XxTEMyb00BygMt78V1oa-9" value="" style="outlineConnect=0;dashed=0;verticalLabelPosition=bottom;verticalAlign=top;align=center;html=1;shape=mxgraph.aws3.router;fillColor=#F58536;gradientColor=none;" vertex="1" parent="1">
          <mxGeometry x="525" y="172" width="70" height="56" as="geometry" />
        </mxCell>
        <mxCell id="XxTEMyb00BygMt78V1oa-14" value="" style="rounded=0;whiteSpace=wrap;html=1;fillColor=#f5f5f5;strokeColor=#666666;fontColor=#333333;" vertex="1" parent="1">
          <mxGeometry x="80" y="230" width="270" height="240" as="geometry" />
        </mxCell>
        <mxCell id="XxTEMyb00BygMt78V1oa-15" value="调用方服务器" style="whiteSpace=wrap;html=1;aspect=fixed;fillColor=#e1d5e7;strokeColor=#9673a6;" vertex="1" parent="1">
          <mxGeometry x="120" y="325" width="80" height="80" as="geometry" />
        </mxCell>
        <mxCell id="XxTEMyb00BygMt78V1oa-16" value="云南电视台其他部门" style="text;html=1;strokeColor=none;fillColor=none;align=center;verticalAlign=middle;whiteSpace=wrap;rounded=0;" vertex="1" parent="1">
          <mxGeometry x="110" y="240" width="160" height="20" as="geometry" />
        </mxCell>
        <mxCell id="XxTEMyb00BygMt78V1oa-20" style="edgeStyle=orthogonalEdgeStyle;rounded=0;orthogonalLoop=1;jettySize=auto;html=1;jumpSize=12;shadow=1;fontColor=#FF3333;jumpStyle=sharp;sketch=1;strokeColor=#FF3333;strokeWidth=3;" edge="1" parent="1" source="XxTEMyb00BygMt78V1oa-17" target="XxTEMyb00BygMt78V1oa-15">
          <mxGeometry relative="1" as="geometry" />
        </mxCell>
        <mxCell id="XxTEMyb00BygMt78V1oa-17" value="" style="outlineConnect=0;dashed=0;verticalLabelPosition=bottom;verticalAlign=top;align=center;html=1;shape=mxgraph.aws3.internet_gateway;fillColor=#F58534;gradientColor=none;" vertex="1" parent="1">
          <mxGeometry x="320" y="100" width="69" height="72" as="geometry" />
        </mxCell>
        <mxCell id="XxTEMyb00BygMt78V1oa-23" value="公网IP" style="text;html=1;strokeColor=none;fillColor=none;align=center;verticalAlign=middle;whiteSpace=wrap;rounded=0;fontColor=#FF3333;" vertex="1" parent="1">
          <mxGeometry x="450" y="110" width="40" height="20" as="geometry" />
        </mxCell>
        <mxCell id="XxTEMyb00BygMt78V1oa-24" value="NAT端口映射" style="text;html=1;strokeColor=none;fillColor=none;align=center;verticalAlign=middle;whiteSpace=wrap;rounded=0;fontColor=#FF3333;" vertex="1" parent="1">
          <mxGeometry x="610" y="180" width="40" height="20" as="geometry" />
        </mxCell>
        <mxCell id="XxTEMyb00BygMt78V1oa-25" value="&lt;font&gt;&lt;span style=&quot;color: rgb(17, 31, 44); font-size: 14px; background-color: rgb(201, 231, 255);&quot;&gt;1.需要配置ssl证书，2.API path反向代理 3.图像地址代理&lt;/span&gt;&lt;br&gt;&lt;/font&gt;" style="text;html=1;align=left;verticalAlign=middle;whiteSpace=wrap;rounded=0;fillColor=none;" vertex="1" parent="1">
          <mxGeometry x="610" y="289.5" width="130" height="20" as="geometry" />
        </mxCell>
        <mxCell id="XxTEMyb00BygMt78V1oa-26" value="siamat应用修改API 图像地址为https" style="text;html=1;strokeColor=none;fillColor=none;align=center;verticalAlign=middle;whiteSpace=wrap;rounded=0;fontColor=#000000;" vertex="1" parent="1">
          <mxGeometry x="525" y="430" width="105" height="20" as="geometry" />
        </mxCell>
      </root>
    </mxGraphModel>
  </diagram>
</mxfile>
